<svg xmlns="http://www.w3.org/2000/svg" xmlns:xlink="http://www.w3.org/1999/xlink" width="800" zoomAndPan="magnify" viewBox="0 0 600 30.000001" height="40" preserveAspectRatio="xMidYMid meet" version="1.0"><defs><clipPath id="9a242a02bf"><path d="M 9.675781 3.78125 L 590.320312 3.78125 L 590.320312 25.265625 L 9.675781 25.265625 Z M 9.675781 3.78125 " clip-rule="nonzero"/></clipPath></defs><g clip-path="url(#9a242a02bf)"><path fill="#31bacd" d="M 323.652344 14.527344 C 323.652344 14.042969 324.042969 13.652344 324.527344 13.652344 L 568.722656 13.652344 L 573.722656 8.648438 L 578.726562 13.652344 L 583.160156 13.652344 C 583.550781 12.066406 584.972656 10.882812 586.679688 10.882812 C 588.695312 10.882812 590.324219 12.515625 590.324219 14.527344 C 590.324219 16.535156 588.695312 18.167969 586.679688 18.167969 C 584.972656 18.167969 583.550781 16.988281 583.160156 15.402344 L 578.726562 15.402344 L 573.722656 20.402344 L 568.722656 15.402344 L 324.527344 15.402344 C 324.042969 15.402344 323.652344 15.007812 323.652344 14.527344 Z M 276.347656 14.527344 C 276.347656 15.007812 275.957031 15.402344 275.472656 15.402344 L 31.28125 15.402344 L 26.277344 20.402344 L 21.273438 15.402344 L 16.839844 15.402344 C 16.449219 16.988281 15.027344 18.167969 13.316406 18.167969 C 11.308594 18.167969 9.675781 16.539062 9.675781 14.527344 C 9.675781 12.515625 11.308594 10.882812 13.316406 10.882812 C 15.027344 10.882812 16.449219 12.066406 16.839844 13.652344 L 21.273438 13.652344 L 26.277344 8.648438 L 31.28125 13.652344 L 275.472656 13.652344 C 275.957031 13.652344 276.347656 14.042969 276.347656 14.527344 Z M 312.175781 10.875 C 312.175781 11.65625 319.707031 14.527344 320.492188 14.527344 C 319.707031 14.527344 312.175781 17.394531 312.175781 18.175781 C 312.175781 17.394531 309.304688 14.527344 308.523438 14.527344 C 309.304688 14.527344 312.175781 11.65625 312.175781 10.875 Z M 287.824219 18.175781 C 287.824219 17.394531 280.289062 14.527344 279.507812 14.527344 C 280.289062 14.527344 287.824219 11.65625 287.824219 10.875 C 287.824219 11.65625 290.695312 14.527344 291.476562 14.527344 C 290.695312 14.527344 287.824219 17.394531 287.824219 18.175781 Z M 294.027344 14.523438 L 300 7.882812 L 305.96875 14.523438 L 300 21.160156 Z M 300 3.78125 L 292.300781 14.523438 L 300 25.265625 L 307.699219 14.523438 L 300 3.78125 " fill-opacity="1" fill-rule="nonzero"/></g></svg>