<?xml version="1.0" standalone="no"?>
<!DOCTYPE svg PUBLIC "-//W3C//DTD SVG 20010904//EN"
 "http://www.w3.org/TR/2001/REC-SVG-20010904/DTD/svg10.dtd">
<svg version="1.0" xmlns="http://www.w3.org/2000/svg"
 width="700.000000pt" height="700.000000pt" viewBox="0 0 700.000000 700.000000"
 preserveAspectRatio="xMidYMid meet">
<metadata>
Created by potrace 1.14, written by Peter Selinger 2001-2017
</metadata>
<g transform="translate(0.000000,700.000000) scale(0.100000,-0.100000)"
fill="#000000" stroke="none">
<path d="M490 6245 c-8 -2 -50 -9 -92 -16 -70 -11 -78 -14 -78 -34 0 -22 4
-22 123 -28 138 -6 210 -22 315 -72 107 -50 176 -100 276 -195 127 -122 269
-319 359 -496 l26 -51 -150 -1299 c-137 -1187 -152 -1304 -175 -1354 -58 -127
-179 -200 -331 -200 -61 0 -63 -1 -63 -25 l0 -25 457 2 c427 3 458 4 461 21 3
13 -3 17 -27 17 -16 0 -53 5 -80 11 -59 12 -122 67 -140 122 -10 30 4 223 89
1184 55 631 104 1165 108 1185 7 36 42 -38 613 -1280 558 -1214 607 -1317 631
-1320 23 -3 26 1 37 55 6 32 31 114 54 183 42 120 1066 2444 1074 2437 2 -3
71 -492 153 -1088 81 -596 158 -1128 170 -1183 49 -222 152 -460 273 -633 75
-106 250 -284 332 -338 134 -88 247 -132 450 -177 106 -23 336 -30 458 -14 52
7 57 10 57 32 0 23 -2 24 -72 24 -425 0 -816 274 -1015 709 -51 111 -108 284
-137 413 -27 121 -138 815 -134 833 4 17 999 -771 1109 -877 52 -51 119 -127
148 -168 73 -102 154 -274 188 -395 24 -87 28 -117 27 -235 -1 -464 -251 -822
-676 -968 -344 -117 -725 -87 -1002 81 -268 162 -425 379 -487 672 -20 90 -17
341 4 448 37 185 112 364 222 527 l56 85 -22 18 c-12 10 -26 16 -30 15 -16 -6
-111 -124 -169 -210 -99 -147 -169 -322 -206 -514 -20 -108 -18 -292 5 -412
76 -390 283 -667 626 -836 249 -123 524 -172 829 -148 376 30 638 139 868 360
214 206 339 441 379 712 15 105 6 357 -16 460 -44 199 -127 388 -242 550 -128
180 -251 289 -868 775 -313 246 -599 475 -634 509 -117 112 -180 241 -196 401
-8 87 9 217 40 308 52 150 180 293 328 365 118 58 211 76 361 69 143 -6 213
-23 322 -78 187 -93 299 -251 319 -452 7 -66 8 -68 34 -65 l26 3 0 98 c0 53
-1 214 -3 357 l-2 260 -122 0 c-77 0 -162 7 -229 20 -168 30 -380 43 -504 31
-275 -28 -495 -135 -649 -316 -48 -57 -55 -61 -59 -42 -3 12 -31 190 -63 395
-54 351 -59 372 -78 372 -18 0 -108 -194 -649 -1407 -345 -775 -631 -1414
-635 -1420 -5 -8 -228 464 -577 1220 -312 677 -590 1271 -617 1319 -96 172
-213 318 -343 427 -213 181 -401 260 -666 281 -125 10 -142 10 -169 5z"/>
</g>
</svg>
